<svg id="visual" viewBox="0 0 1920 1080" width="1920" height="1080" xmlns="http://www.w3.org/2000/svg" xmlns:xlink="http://www.w3.org/1999/xlink" version="1.1"><path d="M0 832L45.7 836.2C91.3 840.3 182.7 848.7 274.2 841C365.7 833.3 457.3 809.7 548.8 814.3C640.3 819 731.7 852 823 854.2C914.3 856.3 1005.7 827.7 1097 827.5C1188.3 827.3 1279.7 855.7 1371.2 850.3C1462.7 845 1554.3 806 1645.8 792.3C1737.3 778.7 1828.7 790.3 1874.3 796.2L1920 802L1920 1081L1874.3 1081C1828.7 1081 1737.3 1081 1645.8 1081C1554.3 1081 1462.7 1081 1371.2 1081C1279.7 1081 1188.3 1081 1097 1081C1005.7 1081 914.3 1081 823 1081C731.7 1081 640.3 1081 548.8 1081C457.3 1081 365.7 1081 274.2 1081C182.7 1081 91.3 1081 45.7 1081L0 1081Z" fill="#68d391"></path><path d="M0 885L45.7 887.8C91.3 890.7 182.7 896.3 274.2 899.3C365.7 902.3 457.3 902.7 548.8 892.8C640.3 883 731.7 863 823 853.7C914.3 844.3 1005.7 845.7 1097 853.3C1188.3 861 1279.7 875 1371.2 885.8C1462.7 896.7 1554.3 904.3 1645.8 896.2C1737.3 888 1828.7 864 1874.3 852L1920 840L1920 1081L1874.3 1081C1828.7 1081 1737.3 1081 1645.8 1081C1554.3 1081 1462.7 1081 1371.2 1081C1279.7 1081 1188.3 1081 1097 1081C1005.7 1081 914.3 1081 823 1081C731.7 1081 640.3 1081 548.8 1081C457.3 1081 365.7 1081 274.2 1081C182.7 1081 91.3 1081 45.7 1081L0 1081Z" fill="#44bc7e"></path><path d="M0 977L45.7 981.2C91.3 985.3 182.7 993.7 274.2 990.8C365.7 988 457.3 974 548.8 970.2C640.3 966.3 731.7 972.7 823 981.5C914.3 990.3 1005.7 1001.7 1097 1000.7C1188.3 999.7 1279.7 986.3 1371.2 980.3C1462.7 974.3 1554.3 975.7 1645.8 983.7C1737.3 991.7 1828.7 1006.3 1874.3 1013.7L1920 1021L1920 1081L1874.3 1081C1828.7 1081 1737.3 1081 1645.8 1081C1554.3 1081 1462.7 1081 1371.2 1081C1279.7 1081 1188.3 1081 1097 1081C1005.7 1081 914.3 1081 823 1081C731.7 1081 640.3 1081 548.8 1081C457.3 1081 365.7 1081 274.2 1081C182.7 1081 91.3 1081 45.7 1081L0 1081Z" fill="#06a56b"></path></svg>