<svg id="visual" viewBox="0 0 1920 1080" width="1920" height="1080" xmlns="http://www.w3.org/2000/svg" xmlns:xlink="http://www.w3.org/1999/xlink" version="1.1"><path d="M0 777L45.7 771.7C91.3 766.3 182.7 755.7 274.2 754.5C365.7 753.3 457.3 761.7 548.8 782.8C640.3 804 731.7 838 823 844.2C914.3 850.3 1005.7 828.7 1097 820.7C1188.3 812.7 1279.7 818.3 1371.2 817.2C1462.7 816 1554.3 808 1645.8 795.5C1737.3 783 1828.7 766 1874.3 757.5L1920 749L1920 1081L1874.3 1081C1828.7 1081 1737.3 1081 1645.8 1081C1554.3 1081 1462.7 1081 1371.2 1081C1279.7 1081 1188.3 1081 1097 1081C1005.7 1081 914.3 1081 823 1081C731.7 1081 640.3 1081 548.8 1081C457.3 1081 365.7 1081 274.2 1081C182.7 1081 91.3 1081 45.7 1081L0 1081Z" fill="#00945e"></path><path d="M0 926L45.7 924.8C91.3 923.7 182.7 921.3 274.2 904.7C365.7 888 457.3 857 548.8 843.2C640.3 829.3 731.7 832.7 823 836.8C914.3 841 1005.7 846 1097 840C1188.3 834 1279.7 817 1371.2 827.7C1462.7 838.3 1554.3 876.7 1645.8 897.7C1737.3 918.7 1828.7 922.3 1874.3 924.2L1920 926L1920 1081L1874.3 1081C1828.7 1081 1737.3 1081 1645.8 1081C1554.3 1081 1462.7 1081 1371.2 1081C1279.7 1081 1188.3 1081 1097 1081C1005.7 1081 914.3 1081 823 1081C731.7 1081 640.3 1081 548.8 1081C457.3 1081 365.7 1081 274.2 1081C182.7 1081 91.3 1081 45.7 1081L0 1081Z" fill="#31a96f"></path><path d="M0 882L45.7 883.7C91.3 885.3 182.7 888.7 274.2 904.8C365.7 921 457.3 950 548.8 950.7C640.3 951.3 731.7 923.7 823 906.3C914.3 889 1005.7 882 1097 883.7C1188.3 885.3 1279.7 895.7 1371.2 906.8C1462.7 918 1554.3 930 1645.8 931C1737.3 932 1828.7 922 1874.3 917L1920 912L1920 1081L1874.3 1081C1828.7 1081 1737.3 1081 1645.8 1081C1554.3 1081 1462.7 1081 1371.2 1081C1279.7 1081 1188.3 1081 1097 1081C1005.7 1081 914.3 1081 823 1081C731.7 1081 640.3 1081 548.8 1081C457.3 1081 365.7 1081 274.2 1081C182.7 1081 91.3 1081 45.7 1081L0 1081Z" fill="#4ebe80"></path><path d="M0 1004L45.7 1004.5C91.3 1005 182.7 1006 274.2 998.3C365.7 990.7 457.3 974.3 548.8 977.2C640.3 980 731.7 1002 823 1005.5C914.3 1009 1005.7 994 1097 985.3C1188.3 976.7 1279.7 974.3 1371.2 979.5C1462.7 984.7 1554.3 997.3 1645.8 1001.3C1737.3 1005.3 1828.7 1000.7 1874.3 998.3L1920 996L1920 1081L1874.3 1081C1828.7 1081 1737.3 1081 1645.8 1081C1554.3 1081 1462.7 1081 1371.2 1081C1279.7 1081 1188.3 1081 1097 1081C1005.7 1081 914.3 1081 823 1081C731.7 1081 640.3 1081 548.8 1081C457.3 1081 365.7 1081 274.2 1081C182.7 1081 91.3 1081 45.7 1081L0 1081Z" fill="#68d391"></path></svg>