<svg id="visual" viewBox="0 0 1920 1080" width="1920" height="1080" xmlns="http://www.w3.org/2000/svg" xmlns:xlink="http://www.w3.org/1999/xlink" version="1.1"><path d="M0 246L45.7 241.8C91.3 237.7 182.7 229.3 274.2 237C365.7 244.7 457.3 268.3 548.8 263.7C640.3 259 731.7 226 823 223.8C914.3 221.7 1005.7 250.3 1097 250.5C1188.3 250.7 1279.7 222.3 1371.2 227.7C1462.7 233 1554.3 272 1645.8 285.7C1737.3 299.3 1828.7 287.7 1874.3 281.8L1920 276L1920 0L1874.3 0C1828.7 0 1737.3 0 1645.8 0C1554.3 0 1462.7 0 1371.2 0C1279.7 0 1188.3 0 1097 0C1005.7 0 914.3 0 823 0C731.7 0 640.3 0 548.8 0C457.3 0 365.7 0 274.2 0C182.7 0 91.3 0 45.7 0L0 0Z" fill="#68d391"></path><path d="M0 193L45.7 190.2C91.3 187.3 182.7 181.7 274.2 178.7C365.7 175.7 457.3 175.3 548.8 185.2C640.3 195 731.7 215 823 224.3C914.3 233.7 1005.7 232.3 1097 224.7C1188.3 217 1279.7 203 1371.2 192.2C1462.7 181.3 1554.3 173.7 1645.8 181.8C1737.3 190 1828.7 214 1874.3 226L1920 238L1920 0L1874.3 0C1828.7 0 1737.3 0 1645.8 0C1554.3 0 1462.7 0 1371.2 0C1279.7 0 1188.3 0 1097 0C1005.7 0 914.3 0 823 0C731.7 0 640.3 0 548.8 0C457.3 0 365.7 0 274.2 0C182.7 0 91.3 0 45.7 0L0 0Z" fill="#44bc7e"></path><path d="M0 101L45.7 96.8C91.3 92.7 182.7 84.3 274.2 87.2C365.7 90 457.3 104 548.8 107.8C640.3 111.7 731.7 105.3 823 96.5C914.3 87.7 1005.7 76.3 1097 77.3C1188.3 78.3 1279.7 91.7 1371.2 97.7C1462.7 103.7 1554.3 102.3 1645.8 94.3C1737.3 86.3 1828.7 71.7 1874.3 64.3L1920 57L1920 0L1874.3 0C1828.7 0 1737.3 0 1645.8 0C1554.3 0 1462.7 0 1371.2 0C1279.7 0 1188.3 0 1097 0C1005.7 0 914.3 0 823 0C731.7 0 640.3 0 548.8 0C457.3 0 365.7 0 274.2 0C182.7 0 91.3 0 45.7 0L0 0Z" fill="#06a56b"></path></svg>