<svg id="visual" viewBox="0 0 1920 1080" width="1920" height="1080" xmlns="http://www.w3.org/2000/svg" xmlns:xlink="http://www.w3.org/1999/xlink" version="1.1"><path d="M0 208L35.5 192.5C71 177 142 146 213.2 136.7C284.3 127.3 355.7 139.7 426.8 152.7C498 165.7 569 179.3 640 176.5C711 173.7 782 154.3 853.2 154.7C924.3 155 995.7 175 1066.8 176C1138 177 1209 159 1280 153C1351 147 1422 153 1493.2 151.8C1564.3 150.7 1635.7 142.3 1706.8 147C1778 151.7 1849 169.3 1884.5 178.2L1920 187L1920 0L1884.5 0C1849 0 1778 0 1706.8 0C1635.7 0 1564.3 0 1493.2 0C1422 0 1351 0 1280 0C1209 0 1138 0 1066.8 0C995.7 0 924.3 0 853.2 0C782 0 711 0 640 0C569 0 498 0 426.8 0C355.7 0 284.3 0 213.2 0C142 0 71 0 35.5 0L0 0Z" fill="#68D391" stroke-linecap="round" stroke-linejoin="miter"></path></svg>