<svg id="visual" viewBox="0 0 1920 1080" width="1920" height="1080" xmlns="http://www.w3.org/2000/svg" xmlns:xlink="http://www.w3.org/1999/xlink" version="1.1"><path d="M0 867L40 859C80 851 160 835 240 823.8C320 812.7 400 806.3 480 814.2C560 822 640 844 720 852.5C800 861 880 856 960 847.5C1040 839 1120 827 1200 833.3C1280 839.7 1360 864.3 1440 873.7C1520 883 1600 877 1680 864.8C1760 852.7 1840 834.3 1880 825.2L1920 816L1920 1081L1880 1081C1840 1081 1760 1081 1680 1081C1600 1081 1520 1081 1440 1081C1360 1081 1280 1081 1200 1081C1120 1081 1040 1081 960 1081C880 1081 800 1081 720 1081C640 1081 560 1081 480 1081C400 1081 320 1081 240 1081C160 1081 80 1081 40 1081L0 1081Z" fill="#68D391" stroke-linecap="round" stroke-linejoin="miter"></path></svg>