<svg id="visual" viewBox="0 0 1920 1080" width="1920" height="1080" xmlns="http://www.w3.org/2000/svg" xmlns:xlink="http://www.w3.org/1999/xlink" version="1.1"><path d="M0 176L35.5 171.2C71 166.3 142 156.7 213.2 154C284.3 151.3 355.7 155.7 426.8 165.8C498 176 569 192 640 186.2C711 180.3 782 152.7 853.2 151C924.3 149.3 995.7 173.7 1066.8 175.2C1138 176.7 1209 155.3 1280 148C1351 140.7 1422 147.3 1493.2 152.7C1564.3 158 1635.7 162 1706.8 165.2C1778 168.3 1849 170.7 1884.5 171.8L1920 173L1920 0L1884.5 0C1849 0 1778 0 1706.8 0C1635.7 0 1564.3 0 1493.2 0C1422 0 1351 0 1280 0C1209 0 1138 0 1066.8 0C995.7 0 924.3 0 853.2 0C782 0 711 0 640 0C569 0 498 0 426.8 0C355.7 0 284.3 0 213.2 0C142 0 71 0 35.5 0L0 0Z" fill="#68D391" stroke-linecap="round" stroke-linejoin="miter"></path></svg>