<svg id="visual" viewBox="0 0 1920 1080" width="1920" height="1080" xmlns="http://www.w3.org/2000/svg" xmlns:xlink="http://www.w3.org/1999/xlink" version="1.1"><path d="M0 207L35.5 191.7C71 176.3 142 145.7 213.2 143.3C284.3 141 355.7 167 426.8 181.7C498 196.3 569 199.7 640 194.2C711 188.7 782 174.3 853.2 168.5C924.3 162.7 995.7 165.3 1066.8 169.2C1138 173 1209 178 1280 182.2C1351 186.3 1422 189.7 1493.2 186.8C1564.3 184 1635.7 175 1706.8 164.7C1778 154.3 1849 142.7 1884.5 136.8L1920 131L1920 0L1884.5 0C1849 0 1778 0 1706.8 0C1635.7 0 1564.3 0 1493.2 0C1422 0 1351 0 1280 0C1209 0 1138 0 1066.8 0C995.7 0 924.3 0 853.2 0C782 0 711 0 640 0C569 0 498 0 426.8 0C355.7 0 284.3 0 213.2 0C142 0 71 0 35.5 0L0 0Z" fill="#68D391" stroke-linecap="round" stroke-linejoin="miter"></path></svg>