<svg id="visual" viewBox="0 0 1920 1080" width="1920" height="1080" xmlns="http://www.w3.org/2000/svg" xmlns:xlink="http://www.w3.org/1999/xlink" version="1.1"><path d="M0 834L35.5 846.8C71 859.7 142 885.3 213.2 893.5C284.3 901.7 355.7 892.3 426.8 884.7C498 877 569 871 640 862C711 853 782 841 853.2 843.2C924.3 845.3 995.7 861.7 1066.8 857C1138 852.3 1209 826.7 1280 818C1351 809.3 1422 817.7 1493.2 831.3C1564.3 845 1635.7 864 1706.8 873.3C1778 882.7 1849 882.3 1884.5 882.2L1920 882L1920 1081L1884.5 1081C1849 1081 1778 1081 1706.8 1081C1635.7 1081 1564.3 1081 1493.2 1081C1422 1081 1351 1081 1280 1081C1209 1081 1138 1081 1066.8 1081C995.7 1081 924.3 1081 853.2 1081C782 1081 711 1081 640 1081C569 1081 498 1081 426.8 1081C355.7 1081 284.3 1081 213.2 1081C142 1081 71 1081 35.5 1081L0 1081Z" fill="#68D391" stroke-linecap="round" stroke-linejoin="miter"></path></svg>