<svg id="visual" viewBox="0 0 1920 1080" width="1920" height="1080" xmlns="http://www.w3.org/2000/svg" xmlns:xlink="http://www.w3.org/1999/xlink" version="1.1"><path d="M0 211L40 219C80 227 160 243 240 254.2C320 265.3 400 271.7 480 263.8C560 256 640 234 720 225.5C800 217 880 222 960 230.5C1040 239 1120 251 1200 244.7C1280 238.3 1360 213.7 1440 204.3C1520 195 1600 201 1680 213.2C1760 225.3 1840 243.7 1880 252.8L1920 262L1920 0L1880 0C1840 0 1760 0 1680 0C1600 0 1520 0 1440 0C1360 0 1280 0 1200 0C1120 0 1040 0 960 0C880 0 800 0 720 0C640 0 560 0 480 0C400 0 320 0 240 0C160 0 80 0 40 0L0 0Z" fill="#68D391" stroke-linecap="round" stroke-linejoin="miter"></path></svg>