<svg id="visual" viewBox="0 0 1920 1080" width="1920" height="1080" xmlns="http://www.w3.org/2000/svg" xmlns:xlink="http://www.w3.org/1999/xlink" version="1.1"><path d="M0 895L35.5 904.7C71 914.3 142 933.7 213.2 939.8C284.3 946 355.7 939 426.8 933.3C498 927.7 569 923.3 640 916.5C711 909.7 782 900.3 853.2 901.8C924.3 903.3 995.7 915.7 1066.8 912.3C1138 909 1209 890 1280 883.5C1351 877 1422 883 1493.2 893.2C1564.3 903.3 1635.7 917.7 1706.8 924.7C1778 931.7 1849 931.3 1884.5 931.2L1920 931L1920 1081L1884.5 1081C1849 1081 1778 1081 1706.8 1081C1635.7 1081 1564.3 1081 1493.2 1081C1422 1081 1351 1081 1280 1081C1209 1081 1138 1081 1066.8 1081C995.7 1081 924.3 1081 853.2 1081C782 1081 711 1081 640 1081C569 1081 498 1081 426.8 1081C355.7 1081 284.3 1081 213.2 1081C142 1081 71 1081 35.5 1081L0 1081Z" fill="#68D391" stroke-linecap="round" stroke-linejoin="miter"></path></svg>